# xmcd CD database file
# Copyright (C) 1993-1998 Ti Kan
#
# Track frame offsets:
#	150
#	23338
#	43123
#	64835
#	85455
#	104593
#	124115
#	144795
#	163838
#	185308
#
# Disc length: 2732 seconds
#
# Revision: 1
# Processed by: cddbd v1.4b41PL1 Copyright (c) Steve Scherf et al.
# Submitted via: CDValet v3.31 - Copyright (c) 1997 Greg Leichner
#
DISCID=810aaa0a
DTITLE=Benjamín - Temporal De Amor
DYEAR=1900
DGENRE=
TTITLE0=Cuando Tu Amor Late Más Fuerte
TTITLE1=No Soy El Aire
TTITLE2=Pienso En Ti
TTITLE3=Mañana
TTITLE4=Temporal De Amor
TTITLE5=No Pasa Nada
TTITLE6=Amanecer Contigo
TTITLE7=Amor Sin Final
TTITLE8=Sin Nada
TTITLE9=Una Vez Más
EXTD=
EXTT0=
EXTT1=
EXTT2=
EXTT3=
EXTT4=
EXTT5=
EXTT6=
EXTT7=
EXTT8=
EXTT9=
PLAYORDER=
